<svg xmlns="http://www.w3.org/2000/svg" viewBox="0 0 1200 675" role="img" aria-label="AI misuse measurement: a gauge reaching the warning zone, with in-the-wild agents, a malicious bot, rising statistics and investigation">
  <rect width="1200" height="675" rx="32" fill="#EAF2FA"/>
  <circle cx="600" cy="338" r="235" fill="#DAEBFE"/>
  <g stroke="#8BB8E8" stroke-width="5" stroke-dasharray="2 14" stroke-linecap="round" fill="none">
    <path d="M468 262 L352 212"/>
    <path d="M478 410 L372 468"/>
    <path d="M732 262 L848 212"/>
    <path d="M722 410 L828 468"/>
  </g>
  <g transform="translate(600 338)">
    <rect x="-160" y="-120" width="320" height="230" rx="28" fill="#2774AE"/>
    <path d="M-110 50 A110 110 0 0 1 110 50" fill="none" stroke="#5C9BD1" stroke-width="30"/>
    <path d="M-110 50 A110 110 0 0 1 64.66 -38.99" fill="none" stroke="#FFFFFF" stroke-width="30"/>
    <path d="M64.66 -38.99 A110 110 0 0 1 104.62 16.01" fill="none" stroke="#FFD100" stroke-width="30"/>
    <line x1="0" y1="50" x2="63" y2="-7" stroke="#003B5C" stroke-width="10" stroke-linecap="round"/>
    <circle cx="0" cy="50" r="16" fill="#003B5C"/>
    <circle cx="0" cy="50" r="6" fill="#FFFFFF"/>
  </g>
  <circle cx="290" cy="190" r="72" fill="#FFFFFF"/>
  <g transform="translate(290 190)">
    <circle cx="0" cy="0" r="34" fill="#2774AE"/>
    <g fill="none" stroke="#FFFFFF" stroke-width="4"><ellipse cx="0" cy="0" rx="14" ry="34"/><line x1="-34" y1="0" x2="34" y2="0"/><line x1="-30" y1="-16" x2="30" y2="-16"/><line x1="-30" y1="16" x2="30" y2="16"/></g>
  </g>
  <circle cx="310" cy="490" r="72" fill="#FFFFFF"/>
  <g transform="translate(310 490)">
    <path d="M-24 -24 L-18 -42 L-10 -24 Z M24 -24 L18 -42 L10 -24 Z" fill="#FFD100"/>
    <rect x="-32" y="-26" width="64" height="52" rx="12" fill="#003B5C"/>
    <circle cx="-13" cy="-4" r="7" fill="#FFD100"/><circle cx="13" cy="-4" r="7" fill="#FFD100"/>
    <rect x="-12" y="11" width="24" height="5" rx="2.5" fill="#FFD100"/>
  </g>
  <circle cx="910" cy="190" r="72" fill="#FFFFFF"/>
  <g transform="translate(910 190)">
    <rect x="-34" y="6" width="16" height="26" rx="3" fill="#5C9BD1"/>
    <rect x="-12" y="-8" width="16" height="40" rx="3" fill="#2774AE"/>
    <rect x="10" y="-24" width="16" height="56" rx="3" fill="#2774AE"/>
    <line x1="-40" y1="34" x2="34" y2="34" stroke="#003B5C" stroke-width="4" stroke-linecap="round"/>
    <polyline points="-40,-4 -16,-20 4,-12 34,-42" fill="none" stroke="#FFD100" stroke-width="5" stroke-linecap="round" stroke-linejoin="round"/>
    <polyline points="20,-42 34,-42 34,-28" fill="none" stroke="#FFD100" stroke-width="5" stroke-linecap="round" stroke-linejoin="round"/>
  </g>
  <circle cx="890" cy="490" r="72" fill="#FFFFFF"/>
  <g transform="translate(890 490)">
    <line x1="10" y1="10" x2="32" y2="32" stroke="#2774AE" stroke-width="11" stroke-linecap="round"/>
    <circle cx="-8" cy="-8" r="24" fill="#FFFFFF" stroke="#2774AE" stroke-width="8"/>
    <path d="M-20 -12 A14 14 0 0 1 -8 -22" fill="none" stroke="#8BB8E8" stroke-width="4" stroke-linecap="round"/>
  </g>
  <circle cx="165" cy="330" r="8" fill="#FFD100"/>
  <circle cx="1040" cy="345" r="8" fill="#FFD100"/>
  <circle cx="600" cy="600" r="6" fill="#8BB8E8"/>
</svg>
